<?xml version="1.0" encoding="utf-8"?>
<!-- Generator: Adobe Illustrator 23.0.1, SVG Export Plug-In . SVG Version: 6.00 Build 0)  -->
<svg version="1.1" id="Layer_1" xmlns="http://www.w3.org/2000/svg" xmlns:xlink="http://www.w3.org/1999/xlink" x="0px" y="0px" width="24" height="24"
	 viewBox="0 0 1000 1000" enable-background="new 0 0 1000 1000" xml:space="preserve">
<g>
	<path fill="#010101" d="M500.3,311.8c-6.4,0-12.9,0.3-19.3,1c-6.3,0.6-12.5,1.6-18.7,2.9c-6.1,1.3-12.2,2.8-18.1,4.7l-17.5,6.4
		l-16.3,7.9l-15.6,9.5l-14.7,11l-13.4,12.2l-12.3,13.4l-10.9,14.5l-9.5,15.6l-8,16.5c-2.4,5.7-4.6,11.5-6.4,17.3
		c-1.9,5.9-3.4,12-4.7,18.1c-1.3,6.2-2.2,12.4-2.9,18.7c-2,19.1-1,38.4,2.9,57.2c2.5,12.1,6.2,24,11.1,35.4l8,16.5l9.5,15.6
		l10.9,14.6l12.2,13.4l13.4,12.2l14.6,10.9l15.6,9.5l16.5,8l17.3,6.4l18.1,4.7c18.8,3.9,38.1,4.8,57.3,2.9
		c6.3-0.6,12.5-1.6,18.7-2.9l18.1-4.7l17.3-6.4l16.5-8l15.6-9.5l14.5-10.9l13.5-12.2l12.2-13.4l10.9-14.5l9.5-15.6l8-16.5l6.4-17.3
		c1.9-5.9,3.4-12,4.7-18.1l2.9-18.7c0.6-6.3,1-12.8,1-19.2c0-6.5-0.3-12.9-1-19.3c-0.7-6.3-1.6-12.5-2.9-18.7
		c-1.2-6.1-2.8-12.1-4.7-18.1l-6.4-17.3l-8-16.5l-9.4-15.7l-10.9-14.5l-12.2-13.4L620.4,355l-14.5-10.9l-15.6-9.5l-16.6-7.9
		l-17.3-6.4l-18.1-4.7l-18.7-2.9C513.2,312.1,506.8,311.8,500.3,311.8L500.3,311.8z M500.3,377c4.2,0,8.5,0.2,12.7,0.6l12.3,1.9
		l11.9,3l11.4,4.1l10.8,5.2l10.2,6.2l9.5,7.1l8.8,7.9l8,8.8l7,9.5l6.2,10.2l5.2,10.8c1.6,3.7,2.9,7.5,4.1,11.4
		c1.2,3.9,2.2,7.8,3,11.9c0.8,4.1,1.4,8.1,1.9,12.3l0.6,12.7c0,4.3-0.2,8.5-0.6,12.7c-0.4,4.2-1,8.3-1.9,12.3c-0.8,4-1.8,8-3,11.9
		l-4.1,11.4l-5.2,10.8L603,570l-7,9.5l-8,8.8l-8.8,7.9l-9.5,7l-10.2,6.2l-10.8,5.2l-11.4,4.1l-11.9,3l-12.4,1.9
		c-4.2,0.4-8.5,0.6-12.7,0.6c-4.2,0-8.5-0.2-12.7-0.6l-12.3-1.9c-4-0.8-8-1.8-11.9-3l-11.4-4.1l-10.8-5.2l-10.2-6.2l-9.5-7l-8.8-7.9
		l-8-8.8l-7-9.5l-6.2-10.2l-5.3-10.8l-4.1-11.4l-3-11.9l-1.9-12.3c-0.4-4.2-0.6-8.5-0.6-12.7c0-4.2,0.2-8.5,0.6-12.7s1-8.3,1.9-12.3
		c0.8-4,1.8-8,3.1-11.9l4.1-11.4l5.2-10.8l6.2-10.2l7-9.5l7.9-8.8l8.8-8l9.5-7L441,392l10.8-5.2c3.7-1.6,7.5-2.9,11.4-4.1l11.9-3
		c4-0.8,8.2-1.4,12.3-1.9c4.1-0.4,8.5-0.6,12.7-0.6L500.3,377z"/>
	<path fill="#010101" d="M697,258.1c-1.5,0-3,0-4.5,0.2c-1.5,0.2-3,0.4-4.4,0.7c-1.5,0.3-2.9,0.7-4.4,1.1c-1.4,0.4-2.8,1-4.2,1.6
		c-1.4,0.6-2.7,1.3-4.1,2c-1.3,0.7-2.6,1.5-3.8,2.3c-1.2,0.8-2.4,1.8-3.6,2.8c-1.1,1-2.3,2-3.3,3.1c-1,1.1-2,2.2-3,3.4
		c-0.9,1.2-1.8,2.3-2.6,3.7c-0.8,1.3-1.6,2.6-2.3,3.9c-0.7,1.3-1.3,2.7-1.8,4.1c-0.6,1.4-1,2.8-1.4,4.3c-0.4,1.4-0.7,2.9-1,4.4
		c-0.3,1.5-0.4,3-0.5,4.5c0,1.1,0,2.1,0,3.2c0,3,0.3,6.1,0.9,9c0.3,1.5,0.7,2.9,1.1,4.4c0.4,1.4,1,2.9,1.6,4.2
		c0.6,1.4,1.2,2.8,2,4.1c0.7,1.3,1.5,2.6,2.3,3.9c0.9,1.3,1.8,2.4,2.7,3.6c1,1.2,2,2.3,3.1,3.3c1.1,1.1,2.2,2.1,3.4,3
		c1.2,0.9,2.4,1.8,3.7,2.6c1.3,0.8,2.6,1.6,3.9,2.3c1.4,0.7,2.7,1.3,4.1,1.8c1.4,0.5,2.8,1,4.3,1.4s2.9,0.7,4.4,1
		c1.5,0.3,3,0.4,4.5,0.6c1,0,2.1,0.1,3.2,0.1c1.5,0,3,0,4.5-0.2c1.5-0.2,3-0.4,4.5-0.7c1.5-0.3,2.9-0.7,4.4-1.1
		c1.4-0.4,2.8-1,4.2-1.6c2.8-1.2,5.4-2.6,7.9-4.3c1.2-0.9,2.3-1.8,3.6-2.8c1.2-1,2.2-2,3.3-3.1c1-1.1,2-2.2,3-3.4
		c1.9-2.4,3.5-4.9,4.8-7.6c0.7-1.3,1.3-2.7,1.8-4.1c0.6-1.4,1-2.8,1.4-4.3c0.4-1.5,0.7-2.9,1-4.4s0.4-3,0.5-4.5
		c0-1.1,0.1-2.1,0.1-3.2c0-1.5,0-3-0.2-4.5c-0.1-1.5-0.4-3-0.7-4.5c-0.3-1.6-0.7-3-1.1-4.4c-1.3-4.3-3.3-8.4-5.9-12.2
		c-0.8-1.3-1.8-2.5-2.7-3.6c-1-1.1-2-2.3-3.1-3.3c-1.1-1-2.2-2.1-3.4-3c-1.2-0.9-2.3-1.8-3.7-2.6c-1.3-0.8-2.6-1.6-3.9-2.3
		c-1.3-0.7-2.7-1.3-4.1-1.8c-1.4-0.6-2.8-1-4.3-1.4s-2.9-0.7-4.4-1c-1.5-0.3-3-0.4-4.5-0.5C699.2,258.1,698.1,258,697,258.1
		L697,258.1z"/>
	<path fill="#010101" d="M464.5,131.1c-20.6,0-38.9,0-55.4,0.3l-44.3,1.2c-13.1,0.6-24.7,1.3-35,2.3c-5.2,0.5-10.1,1-14.7,1.6
		c-4.6,0.6-8.8,1.2-13.2,2c-4.4,0.7-8.1,1.5-12,2.3c-3.8,0.9-7.4,1.7-10.9,2.7c-3.5,1-6.8,2-10.2,3.1c-3.4,1.1-6.5,2.3-9.7,3.6
		c-6.4,2.5-12.6,5.3-19,8.5c-4.9,2.4-9.3,4.9-13.8,7.5c-4.3,2.6-8.4,5.4-12.4,8.4c-4.1,3.1-8.1,6.4-11.9,9.9
		c-3.8,3.5-8.1,7.6-12.3,12.1c-5.3,5.6-9.9,10.7-14,15.9c-2.1,2.5-4,5.1-5.8,7.6s-3.5,5.1-5.1,7.7c-1.6,2.6-3.1,5.2-4.7,7.9
		c-1.5,2.7-2.9,5.5-4.2,8.4c-2.7,5.8-5.2,12-7.7,19c-1.9,5.1-3.5,10.4-5,15.6c-1.5,5.3-2.8,11-4,17.1c-1.2,6.1-2.3,12.7-3.1,19.9
		c-1,8-1.8,15.9-2.3,23.9c-0.7,8.8-1.2,18.4-1.7,29.2l-1.1,35.8l-0.6,43.6l-0.2,52.7l0.5,76.6l1.5,58l1.2,22.7l1.5,18.8
		c0.5,5.1,1,10.1,1.7,15.1c0.6,4.5,1.3,8.4,2.1,11.7c1.5,7,3.3,13.7,5.3,20.5s4.2,12.8,6.7,19.1c2.5,6.2,5.2,12.1,8.1,17.8
		s6.1,11.2,9.5,16.3c3.4,5.2,7,10.3,11,15.1c3.9,4.8,8,9.5,12.4,13.8c4.4,4.4,9,8.6,13.8,12.6c4.9,4,10,7.8,15.3,11.3
		c4.9,3.3,9.8,6.3,14.7,9.1c4.9,2.8,9.8,5.2,14.9,7.5s10.3,4.3,15.7,6.2c5.4,1.8,11.1,3.5,17.1,4.9s12.3,2.7,19,3.8s14,2.1,21.5,2.9
		c7.5,0.8,15.8,1.5,24.6,2.1c8.8,0.6,18.2,1,28.2,1.4c15.6,0.6,39.1,0.9,66.3,1l88-0.2l83.3-1.2l31.7-0.9l20.6-1
		c4.4-0.4,8.8-0.8,13-1.3c4.2-0.5,8.3-1,12.3-1.7c4-0.7,7.9-1.4,11.8-2.2c3.8-0.8,7.6-1.7,11.4-2.7c3.8-1,7.4-2,11.1-3.2
		c3.7-1.1,7.3-2.3,10.8-3.7c3.6-1.4,7.2-2.8,10.7-4.3c3.5-1.5,7.1-3.1,10.7-4.8c5.5-2.6,9.9-4.8,13.8-7c3.7-2,7.2-4.2,10.5-6.7
		c3.6-2.7,7.1-5.6,10.4-8.7c3.8-3.5,8.1-7.7,13.4-13c4.7-4.7,8.6-8.7,12-12.4c3.4-3.7,6.3-7,8.8-10.2c2.4-3,4.6-6.2,6.7-9.5
		c2-3.2,3.8-6.5,5.7-10.2c2.8-5.5,5.3-10.7,7.6-15.6c2.3-5,4.2-9.6,6-14.5s3.3-9.9,4.7-14.9c1.4-5.1,2.5-10.7,3.5-16.7
		c1-6,1.8-12.5,2.6-19.8c0.7-7.3,1.4-15.4,1.9-24.4l1.4-30.3l1.2-37.8l0.9-42.1l0.3-44.1l-0.8-86.6l-1-38.8l-1.4-33.3l-1.8-26
		c-0.7-7.2-1.4-12.9-2.1-16.8c-0.8-4.2-1.7-8.5-2.8-12.7c-1-4.1-2.1-8.2-3.3-12.2c-1.2-4-2.3-7.9-3.8-11.7
		c-1.5-3.8-2.8-7.6-4.3-11.2c-1.5-3.7-3.1-7.2-4.8-10.7c-1.7-3.5-3.5-7-5.3-10.3c-1.8-3.3-3.8-6.6-5.8-9.8c-2-3.2-4.1-6.3-6.3-9.3
		c-2.2-3.1-4.4-5.9-6.8-8.8c-2.4-2.9-4.8-5.6-7.3-8.3c-2.5-2.7-5.1-5.3-7.8-7.8c-2.7-2.5-5.5-5-8.3-7.3c-2.8-2.4-5.8-4.7-8.8-6.8
		s-6.2-4.3-9.3-6.4c-3.2-2-6.5-4-9.8-5.9s-6.8-3.7-10.3-5.4c-5.8-2.8-11.1-5.3-16.3-7.5s-10.4-4.1-15.8-5.9
		c-5.6-1.8-11.3-3.2-17.1-4.4c-6.2-1.2-12.9-2.3-20.5-3.2c-7.6-0.8-16.1-1.6-25.8-2.3s-20.6-1-33.1-1.4l-42.4-0.9l-53.6-0.6
		l-68.7-0.4L464.5,131.1z M500.1,196.3l99,0.6l37.3,0.7c10.3,0.3,18.1,0.6,22.8,1c6,0.5,11.7,1.1,17.2,1.9
		c5.5,0.7,10.4,1.6,15.6,2.7s9.7,2.2,14.3,3.6c4.5,1.4,8.9,2.8,13,4.5c4.1,1.6,8.1,3.4,12,5.5c3.8,2,7.5,4.2,11.1,6.5
		c3.5,2.3,7,4.9,10.3,7.6c3.3,2.8,6.6,5.7,9.7,8.8c3.2,3.2,6.3,6.6,9.2,10.1c2.8,3.5,5.4,7.1,7.8,10.9c2.4,3.8,4.6,7.8,6.5,11.9
		c2,4.3,3.8,8.7,5.3,13.3c1.6,4.7,3,9.7,4.2,15c1.2,5.3,2.3,11.3,3.3,17s1.7,12.5,2.4,19.4c0.7,6.9,1.3,14.3,1.7,22.2
		c0.4,6.3,0.7,14.7,1,24.6l0.7,33.7l0.5,82.5l-0.5,82.4l-0.7,33.6l-1,24.4c-0.7,11.4-1.4,21-2.3,29.4c-0.4,4.2-0.9,8-1.4,11.7
		c-0.5,3.6-1.1,6.9-1.7,10.3c-0.7,3.4-1.4,6.2-2.1,9.3c-0.8,3.1-1.7,5.8-2.6,8.6c-1,2.8-2.1,5.7-3.2,8.5c-1.1,2.8-2.5,5.9-3.8,8.8
		s-2.5,5.1-3.8,7.6c-1.3,2.4-2.7,4.8-4.2,7.2c-1.5,2.3-3,4.7-4.7,6.7c-1.7,2.1-3.3,4.3-5,6.3c-1.8,2-3.6,4-5.5,5.9
		c-1.9,1.9-3.9,3.8-5.9,5.5s-4.1,3.5-6.3,5.1c-2.2,1.6-4.5,3.2-6.8,4.7c-2.3,1.4-4.7,3-7.2,4.3s-5.1,2.7-7.7,4
		c-2.6,1.3-5.4,2.5-8.2,3.6s-5.7,2.3-8.6,3.2c-5.9,2-12.1,3.8-18.7,5.3c-6.8,1.6-13.8,2.9-20.7,3.9c-2.7,0.4-8.8,0.8-17.6,1.1
		l-33.6,0.9l-95.2,1.3l-99.6,0.1l-39.1-0.4l-25.4-0.8l-18.7-1.3c-5.8-0.5-11.2-1-16.3-1.7c-5.1-0.6-9.8-1.3-14.2-2.1
		s-8.4-1.6-12.5-2.6c-3.8-0.9-7.5-2-11.2-3.2c-3.7-1.2-7-2.5-10.3-3.9c-3.3-1.4-6.5-3-9.7-4.7c-3.2-1.7-6.5-3.6-9.6-5.7
		c-2.3-1.5-4.7-3.1-7-4.7c-2.3-1.6-4.4-3.3-6.5-5c-2.1-1.7-4.1-3.5-6-5.3c-1.9-1.8-3.8-3.7-5.5-5.7c-1.7-2-3.5-3.9-5.1-6
		c-1.6-2.1-3.2-4.2-4.7-6.4c-1.5-2.2-2.9-4.5-4.3-6.8c-1.4-2.3-2.6-4.7-3.8-7.3c-1.2-2.6-2.3-5.1-3.5-7.8s-2.1-5.4-3.1-8.3
		c-2-6-3.7-12.1-5.1-18.2c-1.5-6.5-2.7-13.3-3.8-20.7s-1.9-15.1-2.6-23.3c-0.5-6.1-0.9-15.5-1.2-27.5l-0.7-42.5l0.3-108.2l1.8-103.4
		l1.4-36.4l0.8-12.1c0.2-2.3,0.5-4.7,0.9-7c1-4.7,2-9.1,3-13.2c1-4.1,2-7.7,3.1-11.5s2.3-7,3.5-10.1c1.2-3.1,2.5-6.1,4-9.1
		c1.5-3,3-5.6,4.7-8.3c1.7-2.7,3.5-5.3,5.5-7.9c2-2.6,4.1-5.2,6.4-7.8s4.8-5.2,7.5-7.9c3.1-3.1,6.4-6.1,9.8-9.1
		c3.5-3,6.8-5.5,10-7.7c3.4-2.3,6.9-4.5,10.6-6.4c3.7-2,7.5-3.7,11.4-5.3c4-1.6,8.2-3,12.6-4.2c4.7-1.3,9.3-2.3,14.2-3.4
		c4.8-1,10.3-1.8,16-2.6c5.7-0.7,11.7-1.4,18.2-1.9c4.5-0.4,12.3-0.7,22.5-1l37.2-0.7L500.1,196.3L500.1,196.3z"/>
</g>
</svg>
