<svg width="177" height="142" viewBox="0 0 177 142" fill="none" xmlns="http://www.w3.org/2000/svg">
<path d="M107.438 136.41C111.292 136.41 115.146 135.987 119 135.141L114.488 118.221C111.386 119.255 108.378 119.772 105.464 119.772C99.73 119.772 96.863 115.025 96.863 105.531L98.837 40.53L78.815 37.005L80.789 100.596C80.789 110.842 83.28 119.396 88.262 126.258C93.244 133.026 99.636 136.41 107.438 136.41Z" fill="black"/>
<circle cx="66" cy="35" r="12" fill="#16A34A"/>
<circle cx="150" cy="35" r="12" fill="#16A34A"/>
<path d="M0.0112112 34.9253C-0.698783 11.4024 32.4468 -5.11913 61.5387 7.79191C71.1227 12.0453 79.2586 18.3449 88.0066 25.2251C88.4042 25.5379 88.5879 25.5056 88.9601 25.215C102.643 14.5327 122.455 -1.75585 150.206 4.58152C161.885 7.24854 170 13.1166 174.158 21.9589C188.073 51.5526 148.158 76.054 113.929 59.8121C105.296 55.7156 97.8406 50.0632 89.028 43.1124C88.5575 42.7413 88.3454 42.7938 87.9153 43.1297C77.9032 50.9488 67.1261 59.448 53.8144 63.0061C26.7261 70.2465 0.758075 57.7453 0.0112112 34.9253ZM16.9618 34.4693C17.8254 48.0571 31.3214 54.3915 45.701 51.9828C58.1282 49.9012 68.5531 41.4367 77.4323 34.3679C77.7314 34.1297 77.5637 34.033 77.3581 33.8844C69.6461 28.3094 62.1147 21.4995 52.6231 17.995C34.2269 11.2029 16.8999 21.1637 16.9618 34.4693ZM160.001 33.895C159.455 20.7633 146.078 13.6072 130.663 16.4074C118.534 18.6106 108.17 27.035 99.5597 33.8867C99.261 34.1244 99.3757 34.2354 99.6205 34.4123C110.386 42.1933 123.091 54.4785 140.256 52.2395C151.689 50.748 160.027 43.0355 160.001 33.895Z" fill="black"/>
</svg>
